<svg xmlns="http://www.w3.org/2000/svg" width="256" height="256" viewBox="0 0 256 256">
<g transform="translate(8)">
<path d="M47 18h111l51 51v156c0 9-7 16-16 16H47c-9 0-16-7-16-16V34c0-9 7-16 16-16z" fill="#010101" stroke="#090909" stroke-width="5"/>
<path d="M158 18v39c0 9 7 16 16 16h35z" fill="#020202" stroke="#090909" stroke-width="5" stroke-linejoin="round"/>
</g>
<g transform="translate(68 89) scale(5)" fill="none" stroke-width="2" stroke-linecap="round" stroke-linejoin="round">
<path d="M9 3H5a2 2 0 0 0-2 2v4m6-6h10a2 2 0 0 1 2 2v4M9 3v18m0 0h10a2 2 0 0 0 2-2V9M9 21H5a2 2 0 0 1-2-2V9m0 0h18" stroke="#030303"/>
</g>
</svg>
