<svg xmlns="http://www.w3.org/2000/svg" width="256" height="256" viewBox="0 0 256 256">
<g transform="translate(8)">
<path d="M47 18h111l51 51v156c0 9-7 16-16 16H47c-9 0-16-7-16-16V34c0-9 7-16 16-16z" fill="#010101" stroke="#090909" stroke-width="5"/>
<path d="M158 18v39c0 9 7 16 16 16h35z" fill="#020202" stroke="#090909" stroke-width="5" stroke-linejoin="round"/>
</g>
<g transform="translate(68 89) scale(5)" fill="none" stroke-width="2" stroke-linecap="round" stroke-linejoin="round">
<line x1="22" x2="2" y1="12" y2="12" stroke="#030303"/>
<path d="M5.45 5.11 2 12v6a2 2 0 0 0 2 2h16a2 2 0 0 0 2-2v-6l-3.45-6.89A2 2 0 0 0 16.76 4H7.24a2 2 0 0 0-1.79 1.11z" stroke="#030303"/>
<line x1="6" x2="6.01" y1="16" y2="16" stroke="#030303"/>
<line x1="10" x2="10.01" y1="16" y2="16" stroke="#030303"/>
</g>
</svg>
