<svg xmlns="http://www.w3.org/2000/svg" width="256" height="256" viewBox="0 0 256 256">
<g transform="translate(8)">
<path d="M47 18h111l51 51v156c0 9-7 16-16 16H47c-9 0-16-7-16-16V34c0-9 7-16 16-16z" fill="#010101" stroke="#090909" stroke-width="5"/>
<path d="M158 18v39c0 9 7 16 16 16h35z" fill="#020202" stroke="#090909" stroke-width="5" stroke-linejoin="round"/>
</g>
<g transform="translate(68 89) scale(5)" fill="none" stroke-width="2" stroke-linecap="round" stroke-linejoin="round">
<line x1="21" x2="14" y1="4" y2="4" stroke="#030303"/>
<line x1="10" x2="3" y1="4" y2="4" stroke="#030303"/>
<line x1="21" x2="12" y1="12" y2="12" stroke="#030303"/>
<line x1="8" x2="3" y1="12" y2="12" stroke="#030303"/>
<line x1="21" x2="16" y1="20" y2="20" stroke="#030303"/>
<line x1="12" x2="3" y1="20" y2="20" stroke="#030303"/>
<line x1="14" x2="14" y1="2" y2="6" stroke="#030303"/>
<line x1="8" x2="8" y1="10" y2="14" stroke="#030303"/>
<line x1="16" x2="16" y1="18" y2="22" stroke="#030303"/>
</g>
</svg>
